PathFileType	4	(X/Y/Z)	Kaydara	
DataRate	CameraRate	NumFrames	NumMarkers	Units	OrigDataRate	OrigDataStartFrame	OrigNumFrames	
240.00	240.00	4	72	mm	240.00	1	359	
Frame#	Time	Hips			RightUpLeg			RightLeg			RightFoot			RightFoot_End			LeftUpLeg			LeftLeg			LeftFoot			LeftFoot_End			Spine			Spine1			Spine2			Spine3			Neck			Head			Head_End			RightShoulder			RightArm			RightForeArm			RightHand			RightHandThumb1			RightHandThumb2			RightHandThumb3			RightHandThumb3_End			RightInHandIndex			RightHandIndex1			RightHandIndex2			RightHandIndex3			RightHandIndex3_End			RightInHandMiddle			RightHandMiddle1			RightHandMiddle2			RightHandMiddle3			RightHandMiddle3_End			RightInHandRing			RightHandRing1			RightHandRing2			RightHandRing3			RightHandRing3_End			RightInHandPinky			RightHandPinky1			RightHandPinky2			RightHandPinky3			RightHandPinky3_End			LeftShoulder			LeftArm			LeftForeArm			LeftHand			LeftHandThumb1			LeftHandThumb2			LeftHandThumb3			LeftHandThumb3_End			LeftInHandIndex			LeftHandIndex1			LeftHandIndex2			LeftHandIndex3			LeftHandIndex3_End			LeftInHandMiddle			LeftHandMiddle1			LeftHandMiddle2			LeftHandMiddle3			LeftHandMiddle3_End			LeftInHandRing			LeftHandRing1			LeftHandRing2			LeftHandRing3			LeftHandRing3_End			LeftInHandPinky			LeftHandPinky1			LeftHandPinky2			LeftHandPinky3			LeftHandPinky3_End			
		X1	Y1	Z1	X2	Y2	Z2	X3	Y3	Z3	X4	Y4	Z4	X5	Y5	Z5	X6	Y6	Z6	X7	Y7	Z7	X8	Y8	Z8	X9	Y9	Z9	X10	Y10	Z10	X11	Y11	Z11	X12	Y12	Z12	X13	Y13	Z13	X14	Y14	Z14	X15	Y15	Z15	X16	Y16	Z16	X17	Y17	Z17	X18	Y18	Z18	X19	Y19	Z19	X20	Y20	Z20	X21	Y21	Z21	X22	Y22	Z22	X23	Y23	Z23	X24	Y24	Z24	X25	Y25	Z25	X26	Y26	Z26	X27	Y27	Z27	X28	Y28	Z28	X29	Y29	Z29	X30	Y30	Z30	X31	Y31	Z31	X32	Y32	Z32	X33	Y33	Z33	X34	Y34	Z34	X35	Y35	Z35	X36	Y36	Z36	X37	Y37	Z37	X38	Y38	Z38	X39	Y39	Z39	X40	Y40	Z40	X41	Y41	Z41	X42	Y42	Z42	X43	Y43	Z43	X44	Y44	Z44	X45	Y45	Z45	X46	Y46	Z46	X47	Y47	Z47	X48	Y48	Z48	X49	Y49	Z49	X50	Y50	Z50	X51	Y51	Z51	X52	Y52	Z52	X53	Y53	Z53	X54	Y54	Z54	X55	Y55	Z55	X56	Y56	Z56	X57	Y57	Z57	X58	Y58	Z58	X59	Y59	Z59	X60	Y60	Z60	X61	Y61	Z61	X62	Y62	Z62	X63	Y63	Z63	X64	Y64	Z64	X65	Y65	Z65	X66	Y66	Z66	X67	Y67	Z67	X68	Y68	Z68	X69	Y69	Z69	X70	Y70	Z70	X71	Y71	Z71	X72	Y72	Z72	

1	0.0	6198.941	914.58397	126.699	6249.760723280391	891.7592418305444	51.75788130775815	6154.882352272659	495.74426702037255	-46.5161969982869	6143.877186356067	104.5178575214558	-124.29761038439652	5992.084593133176	27.182520171550216	-37.59760686136505	6162.194347520035	911.3488008573194	213.52242776933645	6070.879625125056	509.0744780212839	285.960124171201	5996.387360601708	83.59830265339961	369.3819157886344	5875.203120244397	0.5577044310484598	247.08211595453935	6133.539460486726	1031.821542200065	77.05844017514836	6070.959469008803	1086.6427812074116	26.860354103558198	6002.195008826845	1136.353732170932	-28.294326908238396	5931.376121521843	1172.0013607454848	-84.50596370282399	5854.792333847433	1210.6591737681758	-143.0047487493804	5783.788866228115	1246.6902563230922	-193.73697682142011	5649.135572988311	1331.4281049176227	-204.90756139765472	5895.779871181165	1189.2251352247356	-149.5499064899919	5922.662329839376	1132.676208563256	-261.15494845230364	5916.834867992948	877.2930930497739	-200.0698713407822	5864.666875883498	629.6865550497	-201.5398195884428	5854.313523371292	607.0405582502017	-225.62908209093	5830.734356875021	586.0646323143494	-228.89572774503654	5815.136779736126	570.0674145415475	-227.52027379348226	5802.8377781209565	555.5424763063575	-223.25084431929895	5857.77595867204	598.8974450772351	-216.01729609001387	5843.963466118653	551.3838937852304	-219.13080013367755	5826.5406313378435	524.1099252163128	-214.54810767730174	5811.822978423952	515.1511042723445	-210.72623529496798	5797.020035991042	513.1303823260021	-206.9066758975071	5860.123778438413	597.0469998180336	-205.65977011841824	5847.923651110025	549.7011528673995	-203.0961219910128	5829.256711455016	519.8570163117818	-196.71031269966045	5811.665872844395	509.00881642253034	-191.43465352012686	5795.54920855626	506.77848073295365	-186.9322217031998	5862.216926781774	596.874792625021	-198.3080176260881	5853.339921065054	554.0677025729526	-189.7611284075769	5837.440523704978	528.0462713750363	-182.7829749183574	5820.669660135507	517.5774696433269	-176.94419103829193	5805.609235616706	515.4781033511622	-172.35536734208551	5864.384056902992	598.6620755414235	-189.38773927187498	5857.848637848475	560.2266667443903	-176.20224356185275	5845.73355310339	539.5626109045008	-168.4480529314215	5833.799068029546	532.0102816864967	-163.1412861993491	5820.629626796266	530.198730383375	-158.47323602469055	5864.830676842686	1206.8685449780592	-96.495219522266	5835.404781672921	1186.7943103957198	24.82875286353356	5912.098513750109	951.7419268578749	-64.00327697806934	5949.3439158029805	716.0623697600147	-167.58388991544282	5956.0114261323215	703.2157967384007	-200.13236855327187	5980.564247899184	687.4378609757607	-216.76393080770393	5998.182048925845	673.9072170029029	-225.2045901996674	6013.313417890306	660.4519280958785	-229.55367549883883	5956.95923438961	692.0739645797561	-192.95495067704263	5977.129570431083	649.6518510975615	-215.32150069128488	5999.3128649947685	624.6577616625565	-225.02153873213214	6015.587875843425	616.9673276201938	-228.6563216824238	6030.734006921574	615.8959349868286	-230.0488423479411	5958.056585063848	686.8494524235534	-183.35315202023153	5978.321361233424	642.6449668787644	-199.97686726583865	6002.617291752107	614.8253343883661	-209.21472340437225	6022.295468220911	605.2850761292083	-212.95365317721217	6038.888969296441	603.9854010648345	-214.16312654150207	5958.241835585414	684.1698427070108	-176.04218791062002	5976.343583252507	642.0198660256195	-184.72107691315517	5997.580424643913	617.2844506472479	-191.36956961952276	6016.59367837378	607.8231212217191	-194.23085212944432	6032.210961193663	606.4783789702022	-195.01491821371346	5958.464285520823	682.8700644877673	-166.62550908603112	5974.958037554537	643.1569835627137	-168.93346349861739	5991.979590314254	622.773211288105	-172.02991874847416	6005.855617814165	615.593173644964	-173.0394784137943	6019.694409151311	614.241436791066	-173.11393285494395
2	0.004	6198.941	914.58397	126.699	6249.762124944884	891.7585047485718	51.75151720177593	6154.879768708927	495.7302478573722	-46.46869736091992	6143.878204908309	104.50038892824712	-124.24330156356658	5992.085989136545	27.161633386763683	-37.545589279505414	6162.1967879400745	911.3518731080044	213.5296003974731	6070.882429238251	509.08145571836513	285.990847555539	5996.3840640162	83.60729505439234	369.4269079272722	5875.199206939948	0.5676152033774136	247.12705203911187	6133.522244984462	1031.8111071719807	77.05514680439288	6070.930901965232	1086.6105283733666	26.84728538748895	6002.157605939219	1136.2958338190224	-28.319918606381695	5931.338295422099	1171.9169994382055	-84.54840431387319	5854.754349252198	1210.548602292704	-143.06475429102645	5783.7508366831225	1246.5574555065564	-193.81277579792285	5649.111086638167	1331.3119639588836	-205.00622789494022	5895.747066507065	1189.1303300543761	-149.598379567342	5922.664918667395	1132.614950911928	-261.1568586405067	5917.096315177774	877.2102190668006	-200.23633399856521	5865.108978379575	629.2542393469773	-201.8924641318277	5854.722094366045	606.5802150473536	-225.88392249534292	5831.22154751384	585.6057793885167	-229.11455024332548	5815.690239431765	569.6048526357706	-227.7300767225064	5803.456337048461	555.0727615230567	-223.46686974287502	5858.214770938486	598.4122708941569	-216.31839453644756	5844.474503784336	550.823038907295	-219.42288464178188	5827.144515531542	523.5244104376908	-214.8464779024789	5812.492972979433	514.5753705468665	-211.02302125304715	5797.750407761461	512.5796831929343	-207.1984460317973	5860.593428963777	596.5528801494921	-206.00546880136142	5848.480416390055	549.1283699444298	-203.45714942068696	5829.918678694499	519.2564246924376	-197.08412897839196	5812.409465460843	508.4195934689649	-191.8094039760598	5796.359771867223	506.2164403092911	-187.30286725323214	5862.7061787188795	596.375953774198	-198.68543210488264	5853.92325792184	553.493302261563	-190.17974098781787	5838.119395349	527.4468407446424	-183.21877129765448	5821.429305414891	516.9885844145043	-177.3840944833658	5806.432816664851	514.9145772464852	-172.79293035848622	5864.896508044498	598.1625933954418	-189.80216055377514	5858.460558553808	559.6563501811547	-176.67718155069429	5846.427558245069	538.9713471244137	-168.9459899913033	5834.554690790522	531.4262725376954	-163.64668816311104	5821.443440758334	529.636933717305	-158.9791368017788	5864.787338266999	1206.7595495675828	-96.55509568227757	5835.3238104166185	1186.6888112425495	24.73004234207018	5911.946604960653	951.6724527517404	-64.22331129416536	5949.644549226333	715.8787113544	-168.0364276593478	5956.280663959178	702.9759642473155	-200.5239089320008	5980.824364554997	687.1396888767574	-217.17843364478153	5998.449260363672	673.5689141538105	-225.6518035047495	6013.59804730746	660.0805951098274	-230.04246110616376	5957.2757676077945	691.8301337565118	-193.3971133123293	5977.511733493777	649.3206127394219	-215.8259165109465	5999.730161665278	624.2690394121671	-225.58912585564477	6016.005184278838	616.5510804090745	-229.2556276289975	6031.136599593068	615.4624451718516	-230.66930592817678	5958.406906120864	686.6101744177633	-183.83956545667115	5978.753974511101	642.3228958480389	-200.5479302754898	6003.092474957888	614.4414254927565	-209.86038053791185	6022.7726964585745	604.8683856743376	-213.64029470884566	6039.351083146781	603.5500513593543	-214.87423913139676	5958.614560963062	683.9359637003162	-176.5581960980773	5976.8101158641175	641.7163339349086	-185.33840470221145	5998.088255080964	616.9280594472177	-192.05756824814145	6017.105708521528	607.4356615196485	-194.96138613511437	6032.709835314368	606.0736363399596	-195.76988411716178	5958.859293415107	682.6453191877689	-167.17445247427742	5975.453541024577	642.873794223056	-169.59539310657658	5992.514295667633	622.4496195308097	-172.7568189752675	6006.396352707196	615.2478516473784	-173.8014578623521	6020.225197042454	613.8813409243292	-173.89988796424734
3	0.008	6198.941	914.58397	126.699	6249.764233346995	891.758656762193	51.745423660728015	6154.877988143312	495.7169794243636	-46.42045701993648	6143.879033750517	104.48363310317255	-124.18788878198815	5992.087246076085	27.141550097788812	-37.492299594112104	6162.198587447042	911.3540537717327	213.53641634362916	6070.884876598583	509.08756485811887	286.0216817762861	5996.380484009931	83.61561296631028	369.47302098331045	5875.19495416477	0.5769573850973373	247.17309312282947	6133.504704469341	1031.8006413537173	77.05222240558734	6070.902081248012	1086.57839217793	26.834658255734382	6002.120194569617	1136.23826114446	-28.345178248249496	5931.301038700773	1171.8332543782185	-84.59101426775786	5854.71750053023	1210.43894038183	-143.12543665456593	5783.714374902153	1246.4257434368199	-193.8896989662754	5649.087160576035	1331.195212577797	-205.10550105579665	5895.716079635575	1189.038161368061	-149.64687936783804	5922.67538606615	1132.5647588281224	-261.15823756775313	5917.383656238261	877.1417291226252	-200.41801836340534	5865.588894154013	628.8626210143124	-202.29719556641993	5855.172103197777	606.1681985214731	-226.19060452722346	5831.752490619804	585.2007669550152	-229.38946445163612	5816.288865962672	569.1995461245364	-227.99969436510287	5804.121072917506	554.6627854839917	-223.74646652252613	5858.694775014441	597.9748037810374	-216.6738569737929	5845.0306028270625	550.3181459523026	-219.77647218958379	5827.795461913866	522.9995144164526	-215.212340347232	5813.210754423051	514.0622592611817	-211.39040769146862	5798.528816033025	512.0926636217959	-207.56297437478258	5861.10356644312	596.1049728216611	-206.4074074333892	5849.081061824571	548.6090427080126	-203.88239442868013	5830.626602951808	518.7141449316831	-197.52892386903864	5813.199838348459	507.8909915954066	-192.25899132533613	5797.217363744162	505.71612507395537	-187.7507632808069	5863.235327389918	595.9220704964532	-199.12022576155164	5854.549039176537	552.9692870355371	-190.663859646984	5838.842407401458	526.9017859906522	-183.7261848034829	5822.233824552244	516.4561740424283	-177.89945249905946	5807.301476292514	514.4085032690721	-173.30827220847027	5865.44801230553	597.7063011126602	-190.2750983935597	5859.113372075106	559.1331507619172	-177.21878025594697	5847.16362499439	538.4299950757714	-169.51578612644323	5835.352818564654	530.8935121044553	-164.22689571999882	5822.299888380775	529.127139809004	-159.5619869618069	5864.744031086424	1206.6494861935118	-96.6159487012188	5835.238934766993	1186.5751417253207	24.62574270651919	5911.802436586117	951.6123053500854	-64.46146905844708	5949.962942797747	715.7305774968281	-168.52587730641278	5956.5713345064105	702.7767616388759	-200.9486790793101	5981.107652691953	686.8835490575734	-217.62449848076176	5998.7406054716275	673.2734947443535	-226.13027316590276	6013.90739978851	659.7527478035686	-230.56298037637876	5957.613355054539	691.6273792627883	-193.87526928881744	5977.9183003424905	649.036617120761	-216.36795044874575	6000.173252870611	623.9295659267871	-226.19528221362063	6016.448578452511	616.1836984780625	-229.89317235801553	6031.565132239272	615.0764033158437	-231.32711301850483	5958.777443753811	686.411308240081	-184.36423476451986	5979.209618603415	642.0468923990438	-201.16005777007507	6003.592083995932	614.1056626169417	-210.54843305581758	6023.274643037237	604.4993255306692	-214.36907356541738	6039.8377272534835	603.160755369081	-215.62657781637225	5959.0068342271925	683.7418933052124	-177.11402491395594	5977.2981631362845	641.4572245832816	-185.9994511689887	5998.6186862764935	616.6177804066376	-192.79074057787764	6017.64055264125	607.0937516617581	-195.73700158520907	6033.231313891889	605.7129304120155	-196.56914891706754	5959.272913803668	682.4593226160321	-167.76491190683163	5975.968914134304	642.6330134645069	-170.30348574281928	5993.06952921734	622.1695783113794	-173.53149054628526	6006.957669174333	614.9455680280696	-174.61135574702183	6020.77632212865	613.562884333779	-174.73319168044128
4	0.013	6198.941	914.58397	126.699	6249.767058061073	891.7597050223271	51.73960943299678	6154.877016799894	495.7044716333426	-46.37147381781027	6143.8796751566315	104.46759988323414	-124.13136373214691	5992.088365868145	27.122281168634757	-37.437729231942576	6162.199735813357	911.3553356084523	213.54286733067119	6070.886960612494	509.0927978456818	286.05262052164966	5996.3766214907755	83.6232508799521	369.52026102998985	5875.190361882339	0.5857264646568998	247.22024556882263	6133.486841436481	1031.7901448158516	77.04966443042805	6070.87300787852	1086.546375231055	26.822474673223006	6002.082774447107	1136.1810219469369	-28.37009765063214	5931.264350506509	1171.750143676951	-84.63377792243601	5854.6817861431955	1210.3302165002274	-143.18677231632665	5783.679478636981	1246.2951570164603	-193.9677158806781	5649.063787528853	1331.0778781874446	-205.2053415834344	5895.686909081109	1188.9486640293103	-149.69537995316568	5922.693736478486	1132.5257291052237	-261.15905073922005	5917.69698388597	877.0878387424506	-200.61492841923717	5866.106808472323	628.5124070199672	-202.75402953050235	5855.663746723539	605.8053032152778	-226.54909046358853	5832.327394026014	584.8504463126462	-229.72040634570368	5816.932873661417	568.8523854389844	-228.32905079254766	5804.832204500103	554.3134709074318	-224.0895542904068	5859.216164582499	597.5858495266048	-217.08366232177758	5845.631966138667	549.8701502766047	-220.1915156244795	5828.493680512454	522.5362380058942	-215.64563743872634	5813.976537835363	513.6127887127323	-211.82833159877822	5799.355480484532	511.670340648664	-208.00019411468298	5861.654381160861	595.7040768732879	-206.86558364777375	5849.725784842128	548.1440929292236	-204.37183933805858	5831.380688964744	518.2311689290502	-198.04467088753438	5814.037202112166	507.42402310320267	-192.7833837525029	5798.122199711929	505.2785456350797	-188.2758744102478	5863.804560430467	595.5139340290101	-199.6124100741012	5855.217456529767	552.4965521533111	-191.2134940383192	5839.60975743474	526.4120619278974	-184.30522005742768	5823.083420514259	515.9812121884174	-178.49026596888598	5808.215421966801	513.9608530935789	-173.90139109361257	5866.038754104574	597.2939750287592	-190.80658130987678	5859.807264535233	558.6579320035007	-177.82707687975875	5847.941943379949	537.9394630643015	-170.1574786440779	5836.193644930061	530.4129210355895	-164.88194545056666	5823.199167006683	528.6702667396006	-160.22182186051765	5864.700754072961	1206.5383696279341	-96.67776279340205	5835.150161471496	1186.4532782413328	24.51582816782332	5911.666194487695	951.5616210298402	-64.71768781124611	5950.29920843763	715.6184783422776	-169.05221377767523	5956.883526685898	702.6187855965969	-201.40660294837315	5981.414172006904	686.6701009161	-218.10204235741298	5999.056123538144	673.0216608698023	-226.63991648859212	6014.241497554309	659.4691230315954	-231.11515517783988	5957.972083497831	691.4663058903006	-194.38935245827108	5978.349318233948	648.8005941414174	-216.94750811770425	6000.642157339535	623.6401385584995	-226.83991312594225	6016.918061908264	615.8660014377722	-230.56886968858493	6032.019597556058	614.738634180367	-232.02219032883303	5959.168285885287	686.2534507385303	-184.92710950658613	5979.688343519694	641.8176711153596	-201.81318026175833	6004.116138025119	613.818832469831	-211.27881333918688	6023.801308929705	604.178708551698	-215.13993343241532	6040.348890784844	602.8183312386415	-216.42010089739273	5959.418745126602	683.5882197825701	-177.70963557252816	5977.807782431685	641.243224928656	-186.70417007446298	5999.171749048936	616.354361649084	-193.56904426773264	6018.19822419272	606.7981640877642	-196.55766824777848	6033.775399373659	605.3970381734639	-197.41269669475534	5959.705239667423	682.3126477973376	-168.3968641762785	5976.504222147487	642.4352962138385	-171.05772039163017	5993.645335651131	621.9337884529807	-174.35391914099446	6007.539599570639	614.6870398552621	-175.46916830840615	6021.347807199029	613.2867872576278	-175.61385391827383
